<svg xmlns="http://www.w3.org/2000/svg" width="32" height="23" id="amex">
  <path fill="#26A6D1" d="M2 0h28a2 2 0 0 1 2 2.001v19a2 2 0 0 1-2 2H2a2 2 0 0 1-2-2v-19A2 2 0 0 1 2 0z"></path>
  <path fill="#fff" d="M5.16 8 2 14.993h3.783l.469-1.115h1.072l.469 1.115h4.164v-.851l.371.851h2.154l.371-.869v.869h8.66l1.053-1.086.986 1.086 4.448.009-3.17-3.486L30 8h-4.379l-1.025 1.066L23.641 8H14.22l-.809 1.805L12.583 8H8.808v.822L8.388 8H5.16zm.732.993h1.844l2.096 4.742V8.993h2.02l1.619 3.4 1.492-3.4h2.01v5.018H15.75l-.01-3.932-1.783 3.932h-1.094l-1.793-3.932v3.932H8.554l-.477-1.125H5.5l-.476 1.124H3.676l2.216-5.017zm12.2 0h4.973l1.521 1.643 1.57-1.643h1.521l-2.311 2.522 2.311 2.493h-1.59l-1.521-1.662-1.578 1.662h-4.896V8.993zm-11.303.849-.849 2.004h1.697l-.848-2.004zm12.531.19v.916h2.713v1.021H19.32v1h3.043l1.414-1.473-1.354-1.465H19.32z"></path>
</svg>
