<svg xmlns="http://www.w3.org/2000/svg" viewBox="0 0 64 64" id="discover-credit-card">
  <g>
    <circle cx="32" cy="32" r="31" fill="#e9e8e8"></circle>
    <path fill="#f06d23" d="M62.84,34.2S44.49,55.88,19.44,60.32a30.93,30.93,0,0,0,23.15.82,32.54,32.54,0,0,0,5.92-2.91,31.62,31.62,0,0,0,9.37-9.16,33.74,33.74,0,0,0,2.91-5.55A23.64,23.64,0,0,0,62.84,34.2Z"></path>
    <path fill="#0d161f" d="M11.36,28.05a2.85,2.85,0,0,0-.83-1.2,2.33,2.33,0,0,0-1-.5,5.74,5.74,0,0,0-1.25-.1H5.84v7H8.37a4.78,4.78,0,0,0,1.13-.12,2.63,2.63,0,0,0,.83-.35,2.43,2.43,0,0,0,.64-.64,3.22,3.22,0,0,0,.48-1,4.67,4.67,0,0,0,.19-1.41A4.57,4.57,0,0,0,11.36,28.05Zm-.86,3a2.33,2.33,0,0,1-.52.89,1.47,1.47,0,0,1-.63.36,3.45,3.45,0,0,1-1.08.13H6.77V27.08H8.24a3.82,3.82,0,0,1,1.2.14,1.84,1.84,0,0,1,.88.79,3.29,3.29,0,0,1,.36,1.69A4.41,4.41,0,0,1,10.5,31.05Z"></path>
    <rect width=".93" height="7.01" x="13.31" y="26.25" fill="#0d161f"></rect>
    <path fill="#0d161f" d="M21.09 30.28a2.07 2.07 0 0 0-.9-.71 9 9 0 0 0-1.55-.45 3.78 3.78 0 0 1-1.4-.5A.8.8 0 0 1 17 28a.92.92 0 0 1 .38-.74A2 2 0 0 1 18.58 27a1.87 1.87 0 0 1 1.22.34 1.41 1.41 0 0 1 .49 1l.88-.07a2.1 2.1 0 0 0-.34-1.1 2 2 0 0 0-.92-.74 3.6 3.6 0 0 0-1.37-.25 3.37 3.37 0 0 0-1.29.24 1.93 1.93 0 0 0-.88.7 1.79 1.79 0 0 0-.3 1 1.61 1.61 0 0 0 .25.87 1.89 1.89 0 0 0 .75.66 6.71 6.71 0 0 0 1.35.43 11.81 11.81 0 0 1 1.25.35 1.47 1.47 0 0 1 .63.41.9.9 0 0 1 .19.58 1.05 1.05 0 0 1-.2.6 1.33 1.33 0 0 1-.6.43 2.72 2.72 0 0 1-.94.16 2.67 2.67 0 0 1-1.08-.21 1.58 1.58 0 0 1-.7-.55 1.9 1.9 0 0 1-.29-.86l-.87.08a2.39 2.39 0 0 0 .38 1.26 2.18 2.18 0 0 0 1 .83 4.11 4.11 0 0 0 1.59.28 3.11 3.11 0 0 0 1.35-.28 2.07 2.07 0 0 0 .92-.77 1.85 1.85 0 0 0 .32-1A1.7 1.7 0 0 0 21.09 30.28zM27.9 30.8a2.28 2.28 0 0 1-.74 1.33 2 2 0 0 1-1.32.45 2.3 2.3 0 0 1-1.19-.33 2 2 0 0 1-.81-1 4.53 4.53 0 0 1 0-2.91 2.06 2.06 0 0 1 .77-1 2.25 2.25 0 0 1 1.35-.39 1.9 1.9 0 0 1 1.16.35 2.2 2.2 0 0 1 .71 1.12l.91-.22a2.77 2.77 0 0 0-1-1.5 2.82 2.82 0 0 0-1.76-.54 3.48 3.48 0 0 0-1.7.42 2.91 2.91 0 0 0-1.19 1.24 4.14 4.14 0 0 0-.42 1.91A4.71 4.71 0 0 0 23 31.58a3 3 0 0 0 1.08 1.34 3.39 3.39 0 0 0 1.84.46 2.87 2.87 0 0 0 1.85-.6A3.07 3.07 0 0 0 28.82 31zM43.85 26.25L42 31.34c-.14.38-.27.77-.38 1.15-.1-.36-.22-.74-.37-1.15l-1.82-5.09h-1l2.72 7h1l2.74-7z"></path>
    <polygon fill="#0d161f" points="46.82 32.43 46.82 30.05 50.7 30.05 50.7 29.22 46.82 29.22 46.82 27.08 50.96 27.08 50.96 26.25 45.9 26.25 45.9 33.26 51.12 33.26 51.12 32.43 46.82 32.43"></polygon>
    <path fill="#0d161f" d="M57.62,31.35a4.89,4.89,0,0,0-.77-.93,2.27,2.27,0,0,0-.56-.35,2.43,2.43,0,0,0,1.49-.65,1.78,1.78,0,0,0,.49-1.26,1.92,1.92,0,0,0-.3-1.05,1.54,1.54,0,0,0-.78-.67,4,4,0,0,0-1.42-.19H52.66v7h.93V30.15h1.08a3,3,0,0,1,.51,0,1.26,1.26,0,0,1,.43.19,2.45,2.45,0,0,1,.47.46c.17.23.39.55.66,1l.93,1.46h1.17Zm-2-2h-2V27h2.22a1.65,1.65,0,0,1,1.14.32,1,1,0,0,1,.36.81,1.09,1.09,0,0,1-.19.63,1,1,0,0,1-.54.42A3,3,0,0,1,55.58,29.34Z"></path>
    <circle cx="33.42" cy="29.79" r="4.1" fill="#e66924"></circle>
    <polygon fill="#0e0e0e" points="19.52 36.89 19.52 39.89 17.51 36.89 16.99 36.89 16.99 40.71 17.47 40.71 17.47 37.71 19.48 40.71 20 40.71 20 36.89 19.52 36.89"></polygon>
    <polygon fill="#0e0e0e" points="21.5 40.26 21.5 38.96 23.61 38.96 23.61 38.51 21.5 38.51 21.5 37.34 23.76 37.34 23.76 36.89 20.99 36.89 20.99 40.71 23.85 40.71 23.85 40.26 21.5 40.26"></polygon>
    <polygon fill="#0e0e0e" points="24.39 36.89 24.39 37.34 25.65 37.34 25.65 40.71 26.16 40.71 26.16 37.34 27.42 37.34 27.42 36.89 24.39 36.89"></polygon>
    <path fill="#0e0e0e" d="M32.13 36.89l-.6 2.45c-.08.32-.14.59-.19.84a11.1 11.1 0 0 0-.29-1.36l-.55-1.93h-.61l-.73 2.58c0 .06-.07.3-.17.71 0-.26-.1-.52-.16-.79l-.58-2.5h-.52l1 3.82h.52l.81-2.91c0-.13.07-.27.11-.45q0 .09.12.45l.81 2.91h.48l1.05-3.82zM36.52 37.78a1.63 1.63 0 0 0-.64-.71 2 2 0 0 0-1-.25 1.73 1.73 0 0 0-1.32.54 2.07 2.07 0 0 0-.51 1.49 2.1 2.1 0 0 0 .22.95 1.69 1.69 0 0 0 .64.71 1.79 1.79 0 0 0 1 .27 1.9 1.9 0 0 0 .93-.24 1.6 1.6 0 0 0 .66-.7 2.19 2.19 0 0 0 .24-1A2.25 2.25 0 0 0 36.52 37.78zm-.66 2.16a1.22 1.22 0 0 1-.94.4A1.24 1.24 0 0 1 34 40a1.58 1.58 0 0 1-.37-1.09A1.62 1.62 0 0 1 34 37.63a1.28 1.28 0 0 1 .92-.37 1.26 1.26 0 0 1 .69.19 1.28 1.28 0 0 1 .46.54 2 2 0 0 1 .16.81A1.66 1.66 0 0 1 35.86 39.94zM40.24 39.67a2.72 2.72 0 0 0-.42-.51 1.76 1.76 0 0 0-.3-.19 1.33 1.33 0 0 0 .81-.35 1 1 0 0 0 .27-.69 1.11 1.11 0 0 0-.16-.57A.85.85 0 0 0 40 37a2.2 2.2 0 0 0-.77-.1h-1.7v3.82h.51V39h.58l.28 0a.82.82 0 0 1 .24.1 1.26 1.26 0 0 1 .25.26 6.22 6.22 0 0 1 .37.53l.5.79h.64zm-1.11-1.09H38.05V37.31h1.21a.9.9 0 0 1 .62.18.55.55 0 0 1 .19.44.59.59 0 0 1-.1.34.48.48 0 0 1-.29.23A1.6 1.6 0 0 1 39.13 38.58z"></path>
    <polygon fill="#0e0e0e" points="42.99 38.44 44.59 36.89 43.91 36.89 42.01 38.78 42.01 36.89 41.5 36.89 41.5 40.71 42.01 40.71 42.01 39.39 42.63 38.78 43.99 40.71 44.66 40.71 42.99 38.44"></polygon>
  </g>
</svg>
