<svg xmlns="http://www.w3.org/2000/svg" viewBox="0 0 64 64" id="mastercard">
  <circle cx="44.36" cy="32" r="18.64" fill="#ee9421" transform="rotate(-13.28 44.376 32.026)"></circle>
  <circle cx="19.64" cy="32" r="18.64" fill="#bc2025" transform="rotate(-45 19.642 31.994)"></circle>
  <path fill="#fbbc5c" d="M27.66 39.8a18 18 0 0 0 1.09 2h6.55a17.88 17.88 0 0 0 1.08-2zm8.69-15.67h-8.42c-.54 1-.89 1.79-1 2h10.22c-.24-.7-.5-1.36-.8-2zm-6.22 19.55a18 18 0 0 0 1.89 2 18.36 18.36 0 0 0 1.87-2zm3.72-23.47h-3.51c-.47.64-.92 1.31-1.32 2h6.27a20 20 0 0 0-1.44-2z"></path>
  <path fill="#f6f6f6" d="M25.61 31h1l.25-1.86h-1l.2-1.14h-2c.05 0-1.06 6.41-1.06 7.2a1.46 1.46 0 0 0 1.57 1.66A4.68 4.68 0 0 0 26 36.6l.25-1.67c-.13 0-.33.06-.51.06-.68 0-.76-.36-.71-.63zm16.25-1.87a3.5 3.5 0 0 1 1.81.57l.33-2.09a7.2 7.2 0 0 0-2.22-.47c-2.26 0-4.48 2-4.48 5.66 0 2.45 1.2 4.07 3.54 4.07a9.12 9.12 0 0 0 1.73-.27l.35-2.14a4.8 4.8 0 0 1-1.63.48 1.94 1.94 0 0 1-2-2.21c.04-2.32 1.24-3.6 2.57-3.6zm-20.39 1.59c.28 0 1.34.09 1.34.09l.25-1.73a8.82 8.82 0 0 0-1.81-.16c-1.46 0-2.93.58-2.93 2.57 0 2.25 2.46 2 2.46 3 0 .63-.69.69-1.21.69a5.91 5.91 0 0 1-1.75-.31l-.26 1.72a5.8 5.8 0 0 0 2.2.25c.44 0 3 .11 3-2.5 0-2.45-2.34-2-2.34-2.94-.03-.53.35-.68 1.05-.68zm25.62-1.81a6.81 6.81 0 0 0-2.38.43L44.42 31a6.15 6.15 0 0 1 2.15-.35c.73 0 1.27.08 1.27.68a1.15 1.15 0 0 1-.07.49s-.58-.05-.85-.05c-1.69 0-3.48.72-3.48 2.91a1.87 1.87 0 0 0 1.9 2.13 2.55 2.55 0 0 0 2-.91l-.07.76H49l.77-5.42c.02-2.24-1.98-2.33-2.68-2.33zm-1 6.29a.71.71 0 0 1-.76-.74c0-.55.29-1.19 1.73-1.19a1.07 1.07 0 0 1 .42 0c.07.38-.17 1.93-1.36 1.93zm15.2.64a.54.54 0 0 0-.23-.22.64.64 0 0 0-.58 0 .49.49 0 0 0-.23.22.67.67 0 0 0-.08.3.63.63 0 0 0 .3.52.64.64 0 0 0 .3.08.67.67 0 0 0 .3-.08.63.63 0 0 0 .3-.52.67.67 0 0 0-.08-.3zm-.09.54a.42.42 0 0 1-.18.19.48.48 0 0 1-.5 0 .37.37 0 0 1-.18-.19.44.44 0 0 1-.07-.24.47.47 0 0 1 .07-.25.41.41 0 0 1 .19-.18.44.44 0 0 1 .24-.07.42.42 0 0 1 .24.07.41.41 0 0 1 .19.18.59.59 0 0 1 .07.25.51.51 0 0 1-.07.24zm-2.36-9.03L58.42 30a2.6 2.6 0 0 0-1.9-1c-1.8 0-3.3 2.17-3.3 4.67 0 1.61.79 3.18 2.44 3.18a2.49 2.49 0 0 0 1.83-.85l-.09.7h1.91l1.5-9.35zm-2.49 7.55c-.7 0-1-.59-1-1.52 0-1.52.68-2.53 1.55-2.53.71 0 1.07.49 1.07 1.63s-.56 2.42-1.62 2.42z"></path>
  <path fill="#f6f6f6" d="m61 36.34-.09-.12a.09.09 0 0 0-.06 0 .19.19 0 0 0 .13-.07A.14.14 0 0 0 61 36a.29.29 0 0 0 0-.1.21.21 0 0 0-.08-.06.39.39 0 0 0-.17 0h-.22v.64h.11v-.28h.14a.61.61 0 0 1 .1.15l.06.1h.13zm-.23-.24h-.12v-.19h.22a.1.1 0 0 1 0 .07s-.07.12-.13.12zM37.26 29c-.88 0-1.53 1.2-1.53 1.2l.18-1.1h-1.84l-1.22 7.62h2c.57-3.25.68-5.9 2-5.42a7.5 7.5 0 0 1 .79-2.3 1.76 1.76 0 0 0-.38 0zm16.51 0c-.88 0-1.53 1.2-1.53 1.2l.18-1.1h-1.84l-1.22 7.62h2c.58-3.26.69-5.9 2.05-5.42a7.22 7.22 0 0 1 .74-2.3 1.76 1.76 0 0 0-.38 0zM31.81 18.13l.21.17.21-.17zM9.16 27.34l-1.94 5.75-.1-5.75H4.25l-1.58 9.37h1.9l1.2-7.06.18 7.06H7.3l2.53-7.06-1.12 7.06h2.01l1.55-9.37H9.16zM15.22 28.91a6.81 6.81 0 0 0-2.38.43L12.55 31a6.2 6.2 0 0 1 2.14-.35c.74 0 1.27.08 1.27.68a1.32 1.32 0 0 1-.06.49s-.58-.05-.84-.05c-1.71 0-3.5.72-3.5 2.91a1.87 1.87 0 0 0 1.9 2.13 2.56 2.56 0 0 0 2-.91l-.06.76h1.73l.77-5.42c.02-2.24-1.99-2.33-2.68-2.33zm-1 6.29a.72.72 0 0 1-.77-.74c0-.55.29-1.19 1.73-1.19a1.15 1.15 0 0 1 .43 0c.07.38-.18 1.93-1.36 1.93zm18.42-1.66a13.94 13.94 0 0 0 .26-1.79 2.64 2.64 0 0 0-2.8-2.87c-2 0-3.44 2.13-3.44 4.54a3.08 3.08 0 0 0 3.39 3.43 5 5 0 0 0 2.08-.32l.35-1.89a6.18 6.18 0 0 1-2.09.48c-2.11 0-1.74-1.58-1.74-1.58zm-2.54-2.9c1.12 0 .91 1.25.91 1.35h-2.18c0-.13.17-1.35 1.27-1.35z"></path>
</svg>
